<?xml version="1.0" standalone="no"?>
<!DOCTYPE svg PUBLIC "-//W3C//DTD SVG 1.1//EN" "http://www.w3.org/Graphics/SVG/1.1/DTD/svg11.dtd" >
<!--
2013-9-30: Created.
-->
<svg>
<metadata>
Created by iconfont
</metadata>
<defs>

<font id="iconfont" horiz-adv-x="1024" >
  <font-face
    font-family="iconfont"
    font-weight="500"
    font-stretch="normal"
    units-per-em="1024"
    ascent="896"
    descent="-128"
  />
    <missing-glyph />
    
    <glyph glyph-name="icon-arrow-left" unicode="&#58976;" d="M769.799779 827.195549L388.949268 380.756299l380.647593-441.94305-77.538954-66.813249-437.856687 508.346463L691.954948 893.599961z"  horiz-adv-x="1024" />

    
    <glyph glyph-name="icon-arrow-right" unicode="&#58977;" d="M254.212-61.548l380.833 446.416L254.417 826.79 331.952 893.6l437.836-508.374L332.054-128z"  horiz-adv-x="1024" />

    
    <glyph glyph-name="icon-arrow-down" unicode="&#58978;" d="M957.44 640L512 261.12 66.56 640 0 563.2 512 128l512 435.2z"  horiz-adv-x="1024" />

    
    <glyph glyph-name="icon-arrow-up" unicode="&#58979;" d="M957.44 123.187L509.952 504.934 66.97 123.392 0 201.114 509.542 640 1024 201.216z"  horiz-adv-x="1024" />

    
    <glyph glyph-name="icon-aliyun-mobile" unicode="&#58980;" d="M747.52 788.48H276.48v-742.4h471.04v742.4zM512-87.04c25.6 0 46.08 20.48 46.08 46.08S537.6 5.12 512 5.12s-46.08-20.48-46.08-46.08 20.48-46.08 46.08-46.08zM768-128H261.12c-30.72 0-56.32 25.6-56.32 51.2V844.8c0 30.72 25.6 51.2 56.32 51.2H768c30.72 0 56.32-25.6 56.32-51.2v-921.6C819.2-102.4 793.6-128 768-128z"  horiz-adv-x="1024" />

    
    <glyph glyph-name="icon-bang" unicode="&#58981;" d="M512-51.041c-239.882 0-435.041 195.16-435.041 435.041 0 239.882 195.16 435.041 435.041 435.041 239.882 0 435.041-195.16 435.041-435.041 0-239.882-195.16-435.041-435.041-435.041M512 896C229.648 896 0 666.352 0 384c0-282.25 229.648-512 512-512 282.301 0 512 229.75 512 512C1024 666.352 794.301 896 512 896M460.524 285.346h97.119V691.323h-97.12z m59.868-222.178c16.425 0 30.497 5.63 41.703 16.886 11.36 11.309 17.04 25.278 17.04 41.755a55.775 55.775 0 0 1-16.887 41.293 57.463 57.463 0 0 1-41.805 16.528c-16.579 0-30.855-5.526-42.317-16.374a55.263 55.263 0 0 1-17.602-41.447c0-16.733 5.935-30.907 17.602-42.01 11.462-11.053 25.738-16.63 42.317-16.63"  horiz-adv-x="1024" />

    
    <glyph glyph-name="icon-idcard" unicode="&#58982;" d="M890.88 768H133.12C61.44 768 0 706.56 0 634.88v-496.64c0-71.68 61.44-133.12 133.12-133.12h757.76c71.68 0 133.12 61.44 133.12 133.12V634.88C1024 706.56 962.56 768 890.88 768z m0-696.32H133.12c-35.84 0-66.56 30.72-66.56 66.56V634.88c0 35.84 30.72 66.56 66.56 66.56h757.76c35.84 0 66.56-30.72 66.56-66.56v-496.64c-5.12-35.84-30.72-66.56-66.56-66.56zM747.52 317.44c0 15.36 10.24 30.72 25.6 46.08 20.48 25.6 46.08 56.32 46.08 112.64 0 40.96-10.24 128-117.76 128-107.52 0-117.76-97.28-117.76-128 0-56.32 25.6-87.04 46.08-112.64 15.36-15.36 25.6-30.72 25.6-46.08 0-35.84-76.8-61.44-107.52-66.56h-5.12v-87.04h317.44v87.04h-5.12c-30.72 5.12-107.52 30.72-107.52 66.56M435.2 588.8H204.8c-20.48 0-35.84-15.36-35.84-35.84 0-20.48 15.36-35.84 35.84-35.84h230.4c20.48 0 35.84 15.36 35.84 35.84 0 20.48-15.36 35.84-35.84 35.84m0-174.08H204.8c-20.48 0-35.84-15.36-35.84-35.84s15.36-35.84 35.84-35.84h230.4c20.48 0 35.84 15.36 35.84 35.84s-15.36 35.84-35.84 35.84m0-168.96H204.8c-20.48 0-35.84-15.36-35.84-35.84 0-20.48 15.36-35.84 35.84-35.84h230.4c20.48 0 35.84 15.36 35.84 35.84 0 20.48-15.36 35.84-35.84 35.84"  horiz-adv-x="1024" />

    
    <glyph glyph-name="icon-close" unicode="&#58983;" d="M947.608 896l-438.13-438.13L71.348 896 0.026 824.677l438.13-438.13L0.025-51.583l71.324-71.322 438.13 438.129 438.129-438.13 71.323 71.324-438.13 438.13 438.13 438.129z"  horiz-adv-x="1024" />

    
    <glyph glyph-name="icon-fee" unicode="&#58984;" d="M486.4 491.52v-51.2h81.92v-40.96H486.4v-56.32h81.92v-61.44h61.44v61.44h76.8v56.32h-76.8v40.96h76.8v51.2h-56.32l87.04 143.36h-66.56l-51.2-92.16c-5.12-10.24-10.24-20.48-15.36-25.6-10.24 25.6-30.72 61.44-61.44 117.76L537.6 640h-71.68l81.92-143.36H486.4zM839.68 20.48c0 10.24 5.12 15.36 10.24 25.6 5.12 5.12 15.36 10.24 25.6 10.24 20.48 0 35.84-15.36 35.84-35.84 0-10.24-5.12-15.36-10.24-25.6-5.12-5.12-15.36-10.24-25.6-10.24-20.48 5.12-35.84 20.48-35.84 35.84zM343.04 245.76l-107.52 435.2h706.56l-102.4-435.2H343.04zM281.6 20.48c0 10.24 5.12 15.36 10.24 20.48 5.12 5.12 15.36 10.24 25.6 10.24 20.48 0 30.72-15.36 30.72-30.72 0-10.24-5.12-15.36-10.24-20.48-5.12-5.12-15.36-10.24-25.6-10.24-15.36 0-30.72 15.36-30.72 30.72z m30.72 153.6h552.96c15.36 0 30.72 10.24 35.84 25.6l117.76 506.88c5.12 10.24 0 20.48-5.12 30.72-5.12 10.24-15.36 15.36-30.72 15.36H209.92L189.44 819.2c0 5.12-5.12 10.24-5.12 10.24s-5.12 5.12-5.12 10.24c-5.12 5.12-10.24 5.12-10.24 5.12-5.12 0-5.12 5.12-10.24 5.12H35.84C15.36 849.92 0 834.56 0 814.08s15.36-35.84 35.84-35.84H128l138.24-537.6c-10.24-5.12-15.36-10.24-20.48-15.36h-5.12c-25.6-20.48-25.6-56.32-25.6-81.92v-5.12c0-20.48 5.12-35.84 15.36-51.2-15.36-15.36-20.48-40.96-20.48-61.44 0-51.2 46.08-97.28 97.28-97.28 25.6 0 51.2 10.24 71.68 30.72 20.48 20.48 30.72 40.96 30.72 66.56 0 10.24 0 15.36-5.12 25.6h368.64c0-10.24-5.12-15.36-5.12-25.6 0-51.2 46.08-97.28 97.28-97.28 25.6 0 51.2 10.24 71.68 30.72 20.48 20.48 30.72 40.96 30.72 66.56 0 51.2-46.08 97.28-97.28 97.28H312.32c-5.12 0-20.48 5.12-25.6 15.36 0 10.24 0 30.72 5.12 30.72s15.36 5.12 20.48 5.12z"  horiz-adv-x="1024" />

    
    <glyph glyph-name="icon-info" unicode="&#58985;" d="M512-51.2C271.36-51.2 76.8 143.36 76.8 384S271.36 819.2 512 819.2 947.2 624.64 947.2 384 752.64-51.2 512-51.2M512 896C230.4 896 0 665.6 0 384s230.4-512 512-512 512 230.4 512 512S793.6 896 512 896M460.8 76.8h97.28V481.28H460.8zM512 691.2c-15.36 0-30.72-5.12-40.96-15.36-10.24-10.24-15.36-25.6-15.36-40.96s5.12-30.72 15.36-40.96c10.24-10.24 25.6-15.36 40.96-15.36s30.72 5.12 40.96 15.36c10.24 10.24 15.36 25.6 15.36 40.96s-5.12 30.72-15.36 40.96c-10.24 10.24-25.6 15.36-40.96 15.36"  horiz-adv-x="1024" />

    
    <glyph glyph-name="icon-earth" unicode="&#58986;" d="M478.98 130.227v-186.042c-18.072 7.065-35.735 19.403-52.015 36.246-39.369 41.058-63.174 94.454-78.328 135.615 41.468 7.986 85.188 12.799 130.342 14.181zM265.291 164.22c-41.058-11.672-78.994-26.467-112.936-43.976a447.904 447.904 0 0 0-84.881 230.53h172.834c2.048-64.403 10.495-127.065 24.983-186.554zM67.475 416.97a447.802 447.802 0 0 0 84.83 230.53c34.352-17.765 72.236-32.509 112.884-43.976a916.235 916.235 0 0 1-25.034-186.554H67.475z m238.978-66.195c36.86 0.153 73.874 0.102 110.888 0.05l61.536-0.05v-154.2a882.19 882.19 0 0 1-149.284-16.894 841.132 841.132 0 0 0-23.14 171.094z m172.526 220.393V416.97h-60.307c-37.424 0-74.847 0-112.22 0.102a841.132 841.132 0 0 0 23.14 170.888c47.407-9.522 97.527-15.153 149.387-16.792z m-130.444 80.428c13.464 36.4 32.508 79.71 61.843 116.724 21.758 27.543 44.744 46.075 68.601 55.24v-186.248a1084.205 1084.205 0 0 0-74.232 5.632l-17.611 2.508c-13.311 1.894-26.11 3.635-38.601 6.144z m-151.537 47.713A445.395 445.395 0 0 0 351.402 799.856c-26.468-35.734-48.687-79.66-67.322-132.85-31.228 8.651-60.41 19.453-87.03 32.303z m87.031-598.468c18.43-52.987 40.649-96.912 67.27-132.8a447.75 447.75 0 0 0-154.25 100.445 529.205 529.205 0 0 0 87.031 32.355zM783.691 416.97a902.668 902.668 0 0 1-24.88 186.451c41.314 11.826 79.198 26.622 112.73 44.079a448.723 448.723 0 0 0 84.984-230.53H783.794z m-238.62-286.487c24.37-0.768 48.892-3.072 72.288-5.273l15.154-2.15c14.13-1.997 28.669-3.994 42.799-6.758-18.533-50.325-37.885-86.724-61.946-116.93-21.502-27.44-44.437-45.87-68.294-55.136V130.483z m0 66.041v154.25h26.673c48.533-0.05 97.066-0.05 145.599 0.052a827.821 827.821 0 0 0-22.884-171.094 905.637 905.637 0 0 1-149.387 16.844zM717.6 417.072c-37.526-0.102-74.847-0.102-112.373-0.102h-60.154V571.22c52.321 1.69 102.39 7.32 149.335 16.894 13.311-53.755 21.041-111.195 23.14-171.042z m22.577 249.882c-18.021 51.81-39.932 95.223-67.117 132.697A449.184 449.184 0 0 0 827.053 699.31c-27.184-12.952-56.263-23.754-86.877-32.355z m-195.053-29.59V823.405c18.123-7.065 35.785-19.352 51.912-36.298 38.908-40.341 62.304-91.946 78.328-135.564a381.887 381.887 0 0 0-24.88-4.146c-34.097-5.427-69.523-8.908-105.36-10.035z m281.88-568.878a450.361 450.361 0 0 0-154.149-100.444c26.314 35.734 48.482 79.659 67.168 132.697a527.307 527.307 0 0 0 87.031-32.253z m129.625 282.289a448.928 448.928 0 0 0-84.984-230.429 607.171 607.171 0 0 1-112.833 44.028c14.641 60.103 22.986 122.663 24.931 186.4h172.886z m11.62 265.445A516.096 516.096 0 0 1 701.678 859.652C649.049 880.898 590.994 893.184 528.485 896h-33.686c-69.114-3.123-133.67-18.225-191.981-44.693A516.044 516.044 0 0 1 79.762 658.302 510.618 510.618 0 0 1 0 392.754v-18.276A522.7 522.7 0 0 1 24.778 226.37a513.997 513.997 0 0 1 349.354-335.429c36.144-10.29 75.666-16.485 121.383-18.89h33.994a560.277 560.277 0 0 1 92.406 11.928 509.184 509.184 0 0 1 206.52 97.628A516.044 516.044 0 0 1 969.58 154.442a513.997 513.997 0 0 1 54.318 220.701v18.123a513.843 513.843 0 0 1-55.65 222.954z"  horiz-adv-x="1024" />

    
    <glyph glyph-name="icon-right" unicode="&#58987;" d="M512-51.2C271.36-51.2 76.8 143.36 76.8 384S271.36 819.2 512 819.2 947.2 624.64 947.2 384 752.64-51.2 512-51.2M512 896C230.4 896 0 665.6 0 384s230.4-512 512-512 512 230.4 512 512S793.6 896 512 896M716.8 588.8L450.56 266.24 312.32 414.72 256 363.52l199.68-215.04 317.44 394.24z"  horiz-adv-x="1024" />

    
    <glyph glyph-name="icon-money" unicode="&#58988;" d="M512-51.2C271.36-51.2 76.8 143.36 76.8 384S271.36 819.2 512 819.2 947.2 624.64 947.2 384 752.64-51.2 512-51.2M512 896C230.4 896 0 665.6 0 384s230.4-512 512-512 512 230.4 512 512S793.6 896 512 896M686.08 640h-87.04l-76.8-138.24c-10.24-25.6-20.48-40.96-30.72-56.32-15.36 35.84-51.2 97.28-97.28 189.44V640H307.2l122.88-215.04H332.8v-66.56h122.88v-46.08H332.8v-66.56h122.88v-97.28h76.8v97.28h117.76v66.56H532.48V358.4h117.76v66.56h-92.16l128 215.04z"  horiz-adv-x="1024" />

    
    <glyph glyph-name="icon-mail" unicode="&#58989;" d="M322.56 378.88l-256-230.4V599.04l256-220.16zM512 332.8c-10.24 0-25.6 5.12-61.44 35.84L122.88 660.48h783.36L578.56 368.64C537.6 337.92 522.24 332.8 512 332.8z m-138.24-5.12l40.96-35.84C440.32 271.36 471.04 256 512 256c35.84 0 71.68 10.24 97.28 35.84l40.96 35.84 256-225.28H128l245.76 225.28z m578.56 276.48V153.6l-256 230.4 256 220.16z m-15.36 128H92.16c-51.2 0-87.04-40.96-87.04-87.04V128c0-51.2 40.96-87.04 87.04-87.04h844.8c51.2 0 87.04 40.96 87.04 87.04V645.12c0 46.08-40.96 87.04-87.04 87.04z"  horiz-adv-x="1024" />

    
    <glyph glyph-name="icon-mqs" unicode="&#58990;" d="M281.6 532.48c-40.96 0-71.68-30.72-71.68-71.68s30.72-71.68 71.68-71.68c40.96 0 71.68 30.72 71.68 71.68 0 40.96-30.72 71.68-71.68 71.68m225.28 0c-40.96 0-71.68-30.72-71.68-71.68s30.72-71.68 71.68-71.68c40.96 0 71.68 30.72 71.68 71.68 5.12 40.96-25.6 71.68-71.68 71.68M506.88 87.04c-30.72 0-66.56 5.12-102.4 10.24h-5.12l-133.12-76.8v128l-5.12 5.12C148.48 220.16 76.8 327.68 76.8 450.56c0 199.68 194.56 363.52 424.96 363.52s424.96-158.72 424.96-363.52c10.24-199.68-184.32-363.52-419.84-363.52m0 808.96C225.28 896 0 696.32 0 450.56 0 317.44 66.56 189.44 189.44 102.4V-128l235.52 138.24c30.72-5.12 61.44-5.12 92.16-5.12 281.6 0 506.88 199.68 506.88 445.44S788.48 896 506.88 896M747.52 532.48c-40.96 0-71.68-30.72-71.68-71.68s30.72-71.68 71.68-71.68c40.96 0 71.68 30.72 71.68 71.68 0 40.96-30.72 71.68-71.68 71.68"  horiz-adv-x="1024" />

    
    <glyph glyph-name="icon-litst" unicode="&#58991;" d="M832.409869 180.069874L614.961958-37.940037V180.069874H832.409869z m56.933976 683.519719A109.157955 109.157955 0 0 1 811.416877 895.99958H212.634123A110.591955 110.591955 0 0 1 102.400168 785.252625v-802.50767A110.591955 110.591955 0 0 1 212.634123-128h309.759873v71.013971h-309.759873a39.730984 39.730984 0 0 0-39.526984 39.731984V785.253625c0 21.913991 17.766993 39.730984 39.526984 39.730984h598.782754c21.759991 0 39.475984-17.816993 39.475984-39.730984v-541.388778H551.525984V-128h64.153973l302.949876 304.383875 2.969999 3.071999V785.253625c0 29.593988-11.468995 57.343976-32.255987 78.335968zM301.978086 373.605794h420.043828v70.911971H301.978086v-71.013971z m0 200.601918h420.043828v71.013971H301.978086v-71.013971z"  horiz-adv-x="1024" />

    
    <glyph glyph-name="icon-pen" unicode="&#58992;" d="M983.04-46.08H40.96C20.48-46.08 0-66.56 0-87.04S20.48-128 40.96-128h942.08c20.48 0 40.96 20.48 40.96 40.96 0 25.6-20.48 40.96-40.96 40.96m-670.72 230.4l76.8 168.96 332.8 332.8 87.04-87.04-332.8-332.8-163.84-81.92zM870.4 655.36l-87.04 87.04 66.56 66.56 87.04-87.04-66.56-66.56z m-640-593.92c5.12 0 10.24 0 20.48 5.12l276.48 128L998.4 665.6c30.72 30.72 30.72 81.92 0 112.64l-97.28 97.28C885.76 890.88 865.28 896 844.8 896c-20.48 0-40.96-10.24-56.32-20.48L317.44 404.48 184.32 128c-5.12-15.36-5.12-30.72 5.12-40.96 15.36-20.48 25.6-25.6 40.96-25.6z"  horiz-adv-x="1024" />

    
    <glyph glyph-name="icon-Search" unicode="&#58993;" d="M983.04-40.96l-204.8 204.8C849.92 240.64 896 343.04 896 460.8 896 701.44 701.44 896 460.8 896S25.6 701.44 25.6 460.8s194.56-435.2 435.2-435.2c87.04 0 168.96 25.6 235.52 71.68l209.92-209.92c20.48-20.48 56.32-20.48 76.8 0s20.48 51.2 0 71.68zM133.12 455.68c0 179.2 143.36 327.68 327.68 327.68 179.2 0 327.68-143.36 327.68-327.68C788.48 276.48 645.12 128 460.8 128c-179.2 5.12-327.68 148.48-327.68 327.68z"  horiz-adv-x="1024" />

    
    <glyph glyph-name="icon-tel" unicode="&#58994;" d="M267.649892-51.633591c0 5.089961 0 5.089961 0 0 0 5.089961 0 5.089961 0 0l-86.54133 76.359408L354.191222 218.170319l91.63129-81.449369 30.543764-25.453803 45.815645 40.724685c40.725685 35.634724 81.450369 81.449369 117.085093 122.175054 35.634724 45.815645 71.269448 86.54133 101.812212 132.356975l35.634724 50.906605L659.628857 564.333638l173.081659 198.534463 76.359409-71.269448c5.089961-5.089961 10.180921-35.633724-10.181921-101.812212-15.271882-45.815645-40.724685-106.903172-76.359409-162.899738-40.724685-61.088527-86.54033-127.266014-137.446935-188.353541-50.906606-61.087527-106.903172-117.085093-167.990699-162.900739-50.906606-45.815645-101.813212-76.359409-147.628857-101.812212-66.178488-25.453803-91.63129-25.453803-101.812212-25.453802M751.260147 823.955628c5.089961 0 10.180921-5.089961 15.271882-5.089961l10.180921-10.181921L603.63129 615.241244l-10.180921 5.089961c-10.181921 10.181921-10.181921 20.362842-10.181921 30.543763 0 15.271882 5.090961 35.634724 20.362842 45.815645l86.54133 101.813212c15.271882 15.271882 40.724685 25.452803 61.087527 25.452803M282.921774 279.257846c5.089961 0 10.180921-5.089961 15.271882-5.08996l5.08996-5.090961L135.292917 70.541462l-5.08996 5.090961c-10.181921 10.180921-10.181921 20.362842-10.181921 30.543764 0 15.271882 5.089961 35.634724 20.362842 45.815645l86.54033 101.813211c10.181921 15.271882 35.634724 25.452803 55.997566 25.452803m671.963796 463.247413L812.346674 869.771273C797.076792 885.043155 776.71395 890.134115 756.351108 895.225076c-45.815645 5.089961-91.63129-15.271882-122.175054-50.906606l-86.54033-101.813211c-50.906606-55.996566-50.906606-137.446936 0-183.262581l127.266014-111.994133c-30.543763-40.724685-61.087527-81.449369-96.722251-122.175054-35.634724-40.724685-71.269448-76.359409-106.903172-111.994132L344.009301 325.073491c-15.271882 15.271882-35.634724 20.362842-55.997566 25.452803-40.724685 5.090961-91.63129-15.271882-122.175054-50.905606L79.296351 197.807477c-50.906606-55.996566-50.906606-137.446936 0-183.262581l137.446936-122.175054 5.08996-5.09096c10.181921-5.089961 20.362842-10.180921 35.634724-15.271882h15.271882c30.543763 0 71.269448 10.180921 117.085093 30.543763 101.812212 50.906606 229.078226 152.718817 335.981398 285.075793 111.994133 127.266014 193.444502 264.71295 229.078226 376.707082 30.544763 86.54033 30.544763 142.537896 0 178.171621"  horiz-adv-x="1024" />

    
    <glyph glyph-name="icon-wrong" unicode="&#58995;" d="M512-51.2C271.36-51.2 76.8 143.36 76.8 384S271.36 819.2 512 819.2 947.2 624.64 947.2 384 752.64-51.2 512-51.2M512 896C230.4 896 0 665.6 0 384s230.4-512 512-512 512 230.4 512 512S793.6 896 512 896M716.8 542.72l-61.44 46.08L512 440.32 368.64 588.8l-61.44-46.08L455.68 384 307.2 230.4l61.44-51.2L512 327.68 655.36 179.2l61.44 51.2L563.2 384z"  horiz-adv-x="1024" />

    
    <glyph glyph-name="icon-up" unicode="&#58996;" d="M916.48 368.64L547.84 737.28c-10.24 10.24-20.48 15.36-35.84 15.36-15.36 0-25.6-5.12-35.84-15.36L107.52 368.64c-10.24-10.24-15.36-20.48-15.36-35.84 0-25.6 20.48-51.2 51.2-51.2 15.36 0 25.6 5.12 35.84 15.36l281.6 281.6V-76.8c0-25.6 20.48-51.2 51.2-51.2 25.6 0 51.2 20.48 51.2 51.2V583.68l281.6-281.6c10.24-10.24 20.48-15.36 35.84-15.36 25.6 0 51.2 20.48 51.2 51.2 0 10.24-5.12 20.48-15.36 30.72M926.72 896H97.28c-25.6 0-51.2-20.48-51.2-51.2 0-25.6 20.48-51.2 51.2-51.2h829.44c25.6 0 51.2 20.48 51.2 51.2S952.32 896 926.72 896"  horiz-adv-x="1024" />

    
    <glyph glyph-name="icon-unpaid" unicode="&#58997;" d="M931.84 634.88V849.92c0 20.48-10.24 30.72-25.6 40.96-15.36 5.12-30.72 0-46.08 0L35.84 640h-5.12v-696.32c0-35.84 30.72-71.68 71.68-71.68h819.2c35.84 0 71.68 30.72 71.68 71.68V573.44c5.12 25.6-25.6 56.32-61.44 61.44z m-76.8 179.2V640h-563.2l563.2 174.08z m66.56-619.52H808.96v51.2H921.6v-51.2z m0 122.88H768c-20.48 0-35.84-15.36-35.84-35.84v-128c0-20.48 15.36-35.84 35.84-35.84h153.6v-153.6c0-15.36-10.24-25.6-25.6-25.6H138.24c-15.36 0-25.6 10.24-25.6 25.6V558.08H896c15.36 0 25.6-10.24 25.6-25.6v-215.04z"  horiz-adv-x="1024" />

    
    <glyph glyph-name="icon-service" unicode="&#58998;" d="M486.527 625.99h10.19c117.174 0 178.308-61.134 178.308-183.403v-35.662c0-10.189 5.094-20.378 10.189-30.567 10.189-10.189 20.378-10.189 30.567-15.283 20.378 0 40.756 15.283 40.756 40.756v35.662c0 168.119-96.796 264.915-259.82 264.915h-10.19c-163.025 0-259.82-96.796-259.82-264.915 0-96.796 0-259.821 112.08-351.523v-5.094C170.666 55.403 73.87-0.637 73.87-87.244c0-25.472 20.378-40.756 40.756-40.756 25.473 0 40.756 20.378 40.756 40.756 0 25.473 71.323 71.324 229.254 86.607 20.378 0 35.662 20.378 35.662 40.756v66.23c0 15.283-5.095 25.472-20.379 35.66-86.607 56.04-96.796 178.31-96.796 295.484 5.095 127.363 66.23 188.497 183.403 188.497z m157.93-540.02v25.473c0 25.472-20.377 40.756-40.756 40.756-25.472 0-40.756-20.378-40.756-40.756v-66.23c0-20.377 15.284-40.755 35.662-40.755 157.93-15.284 229.254-61.135 229.254-86.607s20.378-40.756 40.756-40.756c10.189 0 20.378 5.094 30.567 10.189 10.19 10.189 10.19 20.378 10.19 30.567 0 81.512-96.797 142.647-264.916 168.12z m224.16 224.16c5.094 10.188 5.094 20.377 0 30.567-5.095 10.189-10.19 20.378-20.378 25.472-10.19 5.095-20.378 5.095-30.567 0-10.19-5.094-20.378-10.189-25.473-20.378-25.473-50.945-168.12-56.04-254.726-45.85-20.378 0-40.757-10.19-45.851-30.568-5.095-20.378 10.189-40.756 30.567-50.945 0 0 40.756-5.095 91.702-5.095 91.701 0 213.97 15.284 254.726 96.796z m86.607 178.308l-45.85 15.283C894.09 722.786 710.686 890.905 496.715 890.905 277.652 890.905 94.25 717.692 84.06 493.532L63.682 478.25c-10.19-10.19-15.284-20.378-15.284-35.662v-157.93c0-20.378 20.378-40.757 40.756-40.757 25.473 0 40.756 20.379 40.756 40.757V422.209l20.379 15.284c10.189 10.189 15.283 20.378 15.283 35.661 0 183.403 147.741 336.239 331.144 336.239s331.145-152.836 331.145-336.239c0-15.283 10.189-35.661 25.472-40.756l45.851-15.284v-127.363c0-20.378 20.378-40.756 40.756-40.756 25.473 0 40.757 20.378 40.757 40.756v157.93c5.094 20.379-10.19 35.662-25.473 40.757z"  horiz-adv-x="1024" />

    
    <glyph glyph-name="icon-shopping-cart" unicode="&#58999;" d="M890.88-51.2c-20.48 0-40.96 20.48-40.96 40.96s20.48 40.96 40.96 40.96 40.96-20.48 40.96-40.96c0-25.6-20.48-40.96-40.96-40.96z m-640 737.28l701.44 10.24-15.36-76.8H266.24l-15.36 66.56z m665.6-133.12l-66.56-286.72H348.16L281.6 552.96h634.88zM322.56-51.2c-20.48 0-40.96 20.48-40.96 40.96s20.48 40.96 40.96 40.96 40.96-20.48 40.96-40.96c0-25.6-20.48-40.96-40.96-40.96z m-5.12 245.76h537.6c30.72 0 56.32 20.48 66.56 46.08L1024 680.96c10.24 20.48 0 35.84-10.24 56.32-10.24 20.48-35.84 30.72-56.32 30.72H230.4L204.8 880.64H40.96C20.48 880.64 0 870.4 0 849.92c0-20.48 20.48-40.96 40.96-40.96h107.52l128-542.72c-30.72-20.48-66.56-61.44-66.56-112.64 0-25.6 10.24-56.32 30.72-76.8-15.36-20.48-30.72-51.2-30.72-76.8 0-66.56 51.2-122.88 112.64-122.88s117.76 56.32 117.76 117.76c0 10.24 0 20.48-5.12 25.6 0 5.12-5.12 15.36-5.12 20.48h353.28c-5.12-15.36-5.12-30.72-5.12-46.08 0-61.44 51.2-117.76 117.76-117.76 61.44 0 117.76 51.2 117.76 117.76 0 61.44-40.96 107.52-107.52 117.76H327.68c-20.48 0-46.08 20.48-46.08 46.08-5.12 0 10.24 35.84 35.84 35.84z"  horiz-adv-x="1028" />

    


  </font>
</defs>
</svg>
