<?xml version="1.0" standalone="no"?>
<!DOCTYPE svg PUBLIC "-//W3C//DTD SVG 20010904//EN"
 "http://www.w3.org/TR/2001/REC-SVG-20010904/DTD/svg10.dtd">
<svg version="1.0" xmlns="http://www.w3.org/2000/svg"
 width="800.000000pt" height="800.000000pt" viewBox="0 0 800.000000 800.000000"
 preserveAspectRatio="xMidYMid meet">
<metadata>
Created by potrace 1.11, written by Peter Selinger 2001-2013
</metadata>
<g transform="translate(0.000000,800.000000) scale(0.100000,-0.100000)"
fill="#000000" stroke="none">
<path d="M492 5218 c-7 -7 -12 -26 -12 -42 0 -17 29 -300 65 -630 69 -645 67
-636 125 -636 23 0 526 169 595 200 14 6 -9 9 -71 9 -156 1 -245 44 -300 143
-27 49 -29 60 -28 153 1 78 11 144 46 300 l44 200 122 3 c94 2 122 0 122 -10
0 -7 -21 -108 -46 -223 -25 -116 -46 -234 -47 -263 -2 -47 1 -57 26 -78 34
-29 101 -33 153 -8 53 25 77 90 131 351 l48 232 80 3 c44 2 73 6 65 10 -35 16
-1059 298 -1081 298 -14 0 -30 -5 -37 -12z"/>
<path d="M6287 4919 c-53 -12 -107 -42 -138 -76 -25 -26 -75 -113 -65 -113 2
0 40 -7 83 -15 105 -20 109 -20 123 15 27 66 104 91 148 50 34 -32 31 -103 -7
-141 -17 -17 -41 -30 -58 -31 -15 0 -35 -1 -43 -2 -12 -1 -37 -82 -40 -128 0
-5 15 -8 34 -8 103 0 131 -156 36 -205 -60 -31 -120 -6 -146 60 l-15 42 -102
-14 c-56 -8 -103 -15 -104 -16 -1 -2 3 -21 9 -44 14 -57 67 -116 126 -141 101
-44 271 -37 359 13 57 34 118 106 133 159 19 71 6 123 -47 176 -25 24 -40 46
-35 48 35 11 96 69 113 105 50 110 -10 225 -137 263 -52 15 -168 17 -227 3z"/>
<path d="M1826 4548 c-44 -205 -81 -383 -84 -396 l-4 -22 318 2 318 3 18 80
c9 44 18 86 18 93 0 9 -44 12 -189 12 -105 0 -192 3 -194 8 -2 4 22 126 54
272 31 146 60 277 63 293 l6 27 -123 0 -122 0 -79 -372z"/>
<path d="M2510 4916 c0 -8 -30 -151 -36 -168 -5 -16 5 -18 115 -18 109 0 121
-2 121 -17 0 -10 -27 -143 -60 -296 -33 -154 -60 -281 -60 -283 0 -3 55 -3
122 -2 l121 3 53 245 c29 135 58 269 64 298 l11 52 130 0 c71 0 129 2 129 4 0
8 30 151 36 169 5 16 -17 17 -370 17 -207 0 -376 -2 -376 -4z"/>
<path d="M6792 4530 c-45 -216 -81 -393 -80 -394 2 -1 120 1 263 4 245 5 263
7 312 29 62 28 140 107 177 179 92 181 66 422 -55 511 -63 47 -102 54 -324 59
l-211 4 -82 -392z m454 189 c39 -36 49 -86 35 -170 -22 -131 -81 -222 -157
-240 -59 -13 -134 -11 -134 4 0 14 78 392 86 421 6 16 14 18 76 14 54 -4 74
-10 94 -29z"/>
<path d="M3601 4713 c-14 -3 -51 -31 -82 -63 l-57 -58 14 51 c8 29 14 53 14
55 0 1 -46 2 -102 2 l-103 0 -58 -273 c-31 -149 -57 -278 -57 -285 0 -10 25
-12 106 -10 l107 3 31 140 c18 77 40 157 50 178 26 53 69 80 127 81 l47 1 41
82 40 82 -37 11 c-38 10 -41 10 -81 3z"/>
<path d="M4007 4710 c-166 -29 -277 -161 -277 -331 0 -81 17 -130 63 -177 52
-55 101 -74 198 -80 219 -12 370 111 387 315 8 107 -51 214 -143 254 -49 21
-163 30 -228 19z m130 -164 c25 -22 28 -31 28 -83 -1 -70 -18 -117 -59 -160
-65 -70 -166 -27 -166 70 0 68 19 119 60 159 46 47 93 51 137 14z"/>
<path d="M4927 4710 c-51 -13 -96 -37 -131 -69 l-28 -26 7 43 7 42 -100 0
c-95 0 -100 -1 -105 -22 -8 -31 -117 -539 -117 -544 0 -2 49 -4 109 -4 l110 0
11 58 c27 131 61 264 74 290 21 40 58 71 93 78 26 5 34 2 47 -18 15 -23 14
-36 -24 -213 -22 -103 -40 -189 -40 -191 0 -2 49 -4 108 -4 l109 0 42 200 c48
223 52 270 27 317 -28 56 -116 83 -199 63z"/>
<path d="M5478 4706 c-26 -7 -63 -23 -83 -37 -46 -31 -102 -112 -120 -174 -21
-68 -19 -180 4 -230 56 -124 211 -148 320 -51 l24 21 -7 -30 c-31 -135 -58
-175 -121 -175 -31 0 -65 25 -65 47 0 6 -39 16 -87 23 -49 6 -96 14 -105 16
-24 7 -24 -37 1 -91 43 -95 131 -132 296 -123 141 8 212 50 255 149 11 27 47
176 80 331 33 156 62 291 64 301 4 15 -6 17 -100 17 -101 0 -104 -1 -104 -22
0 -43 -14 -50 -41 -22 -50 54 -130 73 -211 50z m172 -163 c18 -23 21 -37 17
-79 -6 -60 -37 -126 -69 -148 -58 -41 -128 1 -128 76 0 52 39 139 71 162 37
25 84 21 109 -11z"/>
<path d="M1600 4404 c0 -32 -56 -139 -95 -183 l-37 -40 45 15 c25 8 52 23 61
33 16 18 43 177 32 188 -3 4 -6 -2 -6 -13z"/>
<path d="M2714 3587 c-6 -26 -8 -26 -107 -29 l-102 -3 -3 -182 -2 -183 50 0
c50 0 50 0 50 32 l0 32 33 -32 33 -32 32 30 c38 35 44 36 40 13 -2 -15 5 -18
42 -18 37 0 44 3 42 18 -4 24 7 21 40 -10 l28 -27 28 28 27 27 -30 25 -30 24
28 0 c24 0 27 4 27 34 0 27 -4 35 -21 38 l-21 3 20 26 21 26 -35 16 c-44 21
-39 22 -54 -13 -16 -38 -29 -39 -27 -2 2 25 -1 27 -40 30 -42 3 -43 3 -43 -30
l-1 -33 -22 28 c-25 30 -44 34 -71 14 -18 -13 -18 -15 -1 -40 17 -26 17 -27
-4 -27 -17 0 -21 -6 -21 -35 0 -28 4 -35 20 -35 25 0 25 -9 3 -26 -38 -29 -43
-19 -43 91 l0 105 178 -2 177 -3 -1 -137 -1 -138 54 0 53 0 0 185 0 185 -116
0 c-111 0 -115 1 -109 20 5 16 2 20 -17 20 -13 0 -40 3 -60 6 -34 6 -38 4 -44
-19z m26 -207 c0 -5 -12 -10 -27 -10 -22 0 -25 2 -13 10 20 13 40 13 40 0z
m120 -6 c0 -2 -9 -4 -21 -4 -11 0 -18 4 -14 10 5 8 35 3 35 -6z m-13 -91 c-9
-9 -19 -14 -23 -11 -10 10 6 28 24 28 15 0 15 -1 -1 -17z"/>
<path d="M3385 3552 c-17 -32 -61 -88 -102 -129 l-72 -71 44 -41 45 -41 0
-156 c0 -151 1 -156 25 -179 23 -24 30 -25 140 -25 64 0 125 5 137 11 22 12
48 66 48 102 0 17 -9 26 -37 37 -21 8 -41 16 -45 18 -5 2 -8 -9 -8 -25 0 -48
-10 -54 -86 -51 l-69 3 -3 118 -3 117 50 0 51 0 -7 -32 c-8 -45 -20 -58 -53
-58 -27 0 -27 0 -17 -40 l11 -40 52 0 c35 0 59 6 73 18 24 19 41 94 41 177 0
45 4 55 25 69 l25 16 0 -130 0 -130 53 0 52 0 0 215 0 215 -52 0 -52 0 -3 -70
-3 -70 -72 85 c-44 50 -71 90 -67 98 4 10 -9 19 -42 31 -26 9 -48 16 -48 16
-1 0 -14 -26 -31 -58z m114 -157 c22 -30 41 -57 41 -60 0 -3 -40 -5 -90 -5
-49 0 -90 4 -90 8 0 5 9 17 20 27 12 10 30 34 41 52 11 18 24 33 29 33 4 0 26
-25 49 -55z"/>
<path d="M4923 3592 c-21 -60 -85 -185 -106 -206 -25 -25 -25 -26 -9 -67 15
-40 17 -41 54 -36 21 3 38 1 38 -4 0 -5 -22 -32 -49 -60 l-50 -52 16 -39 c13
-33 19 -37 37 -32 11 4 65 17 120 28 l98 21 4 44 4 43 -57 -7 -57 -7 17 24
c38 53 109 169 106 172 -12 9 -77 46 -81 46 -3 0 -13 -18 -23 -39 -14 -33 -50
-59 -62 -47 -2 2 17 37 42 78 60 100 61 114 7 138 -40 18 -43 18 -49 2z"/>
<path d="M5160 3528 c-13 -39 -41 -99 -62 -134 l-38 -62 20 -46 c12 -26 26
-43 33 -40 9 3 11 -37 9 -176 l-3 -181 53 3 c45 3 53 6 53 23 0 19 8 20 145
23 l145 2 -1 48 -1 47 -57 3 c-52 3 -56 5 -56 27 0 23 4 25 45 25 l45 0 0 44
0 45 -42 3 c-36 2 -44 7 -46 26 -3 20 1 22 42 22 l46 0 0 50 0 50 -46 0 c-41
0 -45 2 -42 23 3 19 10 22 56 25 l52 3 0 45 0 44 -62 0 c-62 0 -63 1 -41 18
l23 17 -22 43 c-25 52 -37 58 -76 38 -26 -13 -35 -13 -77 0 -27 7 -53 14 -59
14 -6 0 -22 -32 -36 -72z m149 -7 c11 -21 17 -41 14 -45 -4 -3 -22 -6 -41 -6
-29 0 -33 3 -27 18 4 9 12 29 17 45 5 15 12 27 14 27 2 0 12 -17 23 -39z m-9
-166 c0 -22 -4 -25 -40 -25 -32 0 -40 4 -40 18 0 26 9 32 47 32 29 0 33 -3 33
-25z m0 -151 c0 -23 -3 -25 -37 -22 -31 2 -39 7 -41 26 -3 20 1 22 37 22 37 0
41 -2 41 -26z m0 -139 c0 -22 -4 -25 -40 -25 -32 0 -40 4 -40 18 0 26 9 32 47
32 29 0 33 -3 33 -25z"/>
<path d="M3798 3303 c3 -330 7 -315 -83 -306 l-53 6 19 -54 18 -54 58 2 c77 3
99 9 123 35 19 21 20 34 20 340 l0 318 -52 0 -53 0 3 -287z"/>
<path d="M4080 3483 l0 -58 286 2 287 2 0 53 0 53 -287 3 -286 2 0 -57z"/>
<path d="M4133 3284 c-2 -7 -3 -30 -1 -53 l3 -42 228 -2 227 -2 0 55 0 55
-226 0 c-160 0 -228 -3 -231 -11z"/>
<path d="M2712 3178 c-4 -16 -19 -18 -138 -18 l-134 0 0 -45 0 -45 118 0 117
-1 -27 -23 c-27 -24 -139 -56 -193 -56 -15 0 -25 -3 -23 -8 23 -54 45 -92 53
-92 6 0 48 9 95 20 92 23 157 55 189 96 l21 26 26 -31 c14 -17 45 -43 69 -57
49 -28 188 -61 193 -45 2 5 16 28 33 50 16 23 29 43 29 45 0 2 -31 6 -70 8
-49 4 -86 14 -127 34 l-58 29 118 3 117 3 0 44 0 44 -147 3 c-106 2 -147 6
-146 15 2 7 -18 12 -54 15 -47 2 -57 0 -61 -14z"/>
<path d="M4932 3050 c-68 -16 -125 -30 -127 -32 -2 -2 1 -25 7 -52 8 -37 14
-47 27 -43 9 2 71 19 139 37 113 31 123 35 118 54 -3 12 -6 31 -6 44 0 27 -2
27 -158 -8z"/>
<path d="M4040 2985 l0 -55 325 0 325 0 0 55 0 55 -325 0 -325 0 0 -55z"/>
</g>
</svg>
